<svg width="33" height="32" viewBox="0 0 33 32" fill="none" xmlns="http://www.w3.org/2000/svg">
<rect x="0.135986" width="32" height="32" rx="4" fill="white"/>
<path d="M18.096 10.04C18.2835 10.2273 18.5377 10.3324 18.8027 10.3324C19.0677 10.3324 19.3219 10.2273 19.5094 10.04L20.4694 9.07999V22.6667C20.4694 22.9319 20.5747 23.1862 20.7623 23.3738C20.9498 23.5613 21.2041 23.6667 21.4694 23.6667C21.7346 23.6667 21.9889 23.5613 22.1765 23.3738C22.364 23.1862 22.4694 22.9319 22.4694 22.6667V9.07999L23.4294 10.04C23.5209 10.1382 23.6313 10.217 23.754 10.2717C23.8766 10.3264 24.0091 10.3557 24.1433 10.3581C24.2776 10.3605 24.411 10.3358 24.5355 10.2855C24.66 10.2352 24.7731 10.1603 24.8681 10.0654C24.963 9.97042 25.0379 9.85731 25.0882 9.73279C25.1385 9.60827 25.1632 9.4749 25.1608 9.34063C25.1584 9.20636 25.1291 9.07394 25.0744 8.95128C25.0197 8.82861 24.9409 8.71821 24.8427 8.62666L22.176 5.95999C21.9885 5.77273 21.7344 5.66754 21.4694 5.66754C21.2044 5.66754 20.9502 5.77273 20.7627 5.95999L18.096 8.62666C17.9088 8.81416 17.8036 9.06833 17.8036 9.33333C17.8036 9.59833 17.9088 9.85249 18.096 10.04ZM11.8027 22.92L12.7627 21.96C12.8542 21.8617 12.9646 21.7829 13.0873 21.7283C13.21 21.6736 13.3424 21.6442 13.4767 21.6419C13.6109 21.6395 13.7443 21.6642 13.8688 21.7145C13.9933 21.7648 14.1065 21.8397 14.2014 21.9346C14.2964 22.0296 14.3712 22.1427 14.4215 22.2672C14.4718 22.3917 14.4965 22.5251 14.4942 22.6594C14.4918 22.7936 14.4624 22.926 14.4077 23.0487C14.3531 23.1714 14.2743 23.2818 14.176 23.3733L11.5094 26.04C11.3219 26.2273 11.0677 26.3324 10.8027 26.3324C10.5377 26.3324 10.2835 26.2273 10.096 26.04L7.42936 23.3733C7.33111 23.2818 7.25231 23.1714 7.19765 23.0487C7.143 22.926 7.11361 22.7936 7.11124 22.6594C7.10887 22.5251 7.13357 22.3917 7.18386 22.2672C7.23416 22.1427 7.30902 22.0296 7.40398 21.9346C7.49894 21.8397 7.61205 21.7648 7.73656 21.7145C7.86108 21.6642 7.99445 21.6395 8.12872 21.6419C8.263 21.6442 8.39541 21.6736 8.51808 21.7283C8.64074 21.7829 8.75115 21.8617 8.84269 21.96L9.80269 22.92V9.33333C9.80269 9.06811 9.90805 8.81376 10.0956 8.62622C10.2831 8.43868 10.5375 8.33333 10.8027 8.33333C11.0679 8.33333 11.3223 8.43868 11.5098 8.62622C11.6973 8.81376 11.8027 9.06811 11.8027 9.33333V22.92Z" fill="#02071C" fill-opacity="0.7"/>
</svg>
