<svg width="16" height="16" viewBox="0 0 16 16" fill="none" xmlns="http://www.w3.org/2000/svg">
  <path fill-rule="evenodd" clip-rule="evenodd" d="M15.8696 0.130387C15.6958 -0.0434629 15.4139 -0.0434622 15.2401 0.130388L7.99999 7.37046L0.759955 0.130429C0.586104 -0.0434214 0.304238 -0.0434214 0.130387 0.130429C-0.0434629 0.304279 -0.0434622 0.586147 0.130388 0.759997L7.37042 8.00003L0.130444 15.24C-0.0434065 15.4139 -0.0434065 15.6957 0.130444 15.8696C0.304294 16.0434 0.586161 16.0434 0.760012 15.8696L7.99999 8.62959L15.24 15.8696C15.4139 16.0435 15.6957 16.0435 15.8696 15.8696C16.0434 15.6958 16.0434 15.4139 15.8696 15.24L8.62955 8.00003L15.8696 0.759955C16.0435 0.586104 16.0435 0.304238 15.8696 0.130387Z" fill="black"/>
</svg>
