<svg width="25" height="24" viewBox="0 0 25 24" fill="none" xmlns="http://www.w3.org/2000/svg">
<path d="M16.6064 13C16.6064 12.8011 16.5274 12.6103 16.3868 12.4697C16.2461 12.329 16.0554 12.25 15.8564 12.25H9.85645C9.65753 12.25 9.46677 12.329 9.32612 12.4697C9.18546 12.6103 9.10645 12.8011 9.10645 13C9.10645 13.1989 9.18546 13.3897 9.32612 13.5303C9.46677 13.671 9.65753 13.75 9.85645 13.75H15.8564C16.0554 13.75 16.2461 13.671 16.3868 13.5303C16.5274 13.3897 16.6064 13.1989 16.6064 13ZM16.6064 17C16.6064 16.8011 16.5274 16.6103 16.3868 16.4697C16.2461 16.329 16.0554 16.25 15.8564 16.25H9.85645C9.65753 16.25 9.46677 16.329 9.32612 16.4697C9.18546 16.6103 9.10645 16.8011 9.10645 17C9.10645 17.1989 9.18546 17.3897 9.32612 17.5303C9.46677 17.671 9.65753 17.75 9.85645 17.75H15.8564C16.0554 17.75 16.2461 17.671 16.3868 17.5303C16.5274 17.3897 16.6064 17.1989 16.6064 17Z" fill="#02071C" fill-opacity="0.7"/>
<path fill-rule="evenodd" clip-rule="evenodd" d="M7.85645 2.25C7.1271 2.25 6.42763 2.53973 5.9119 3.05546C5.39618 3.57118 5.10645 4.27065 5.10645 5V19C5.10645 19.7293 5.39618 20.4288 5.9119 20.9445C6.42763 21.4603 7.1271 21.75 7.85645 21.75H17.8564C18.5858 21.75 19.2853 21.4603 19.801 20.9445C20.3167 20.4288 20.6064 19.7293 20.6064 19V7.968C20.6064 7.587 20.4824 7.217 20.2524 6.913L17.2544 2.945C17.0913 2.72912 16.8804 2.554 16.6381 2.43341C16.3959 2.31282 16.129 2.25004 15.8584 2.25H7.85645ZM6.60645 5C6.60645 4.31 7.16645 3.75 7.85645 3.75H15.1064V8.147C15.1064 8.561 15.4424 8.897 15.8564 8.897H19.1064V19C19.1064 19.69 18.5464 20.25 17.8564 20.25H7.85645C7.16645 20.25 6.60645 19.69 6.60645 19V5Z" fill="#02071C" fill-opacity="0.7"/>
</svg>
