<svg width="25" height="24" viewBox="0 0 25 24" fill="none" xmlns="http://www.w3.org/2000/svg">
<path d="M17.5876 8.16298C17.6939 8.13488 17.7926 8.08376 17.8769 8.01326C17.9613 7.94275 18.029 7.85458 18.0755 7.75498C18.122 7.65538 18.146 7.54679 18.1458 7.43688C18.1457 7.32698 18.1214 7.21845 18.0746 7.11898L16.4146 3.58398C16.3542 3.45453 16.258 3.34504 16.1374 3.2684C16.0168 3.19176 15.8769 3.15116 15.734 3.15137C15.5911 3.15158 15.4513 3.19259 15.3309 3.26959C15.2106 3.34658 15.1147 3.45635 15.0546 3.58598L14.3226 5.15498C14.2965 5.1445 14.2698 5.13548 14.2426 5.12798C12.5156 4.66545 10.6844 4.78364 9.03121 5.46434C7.37799 6.14505 5.99447 7.35048 5.09382 8.89493C4.19317 10.4394 3.82537 12.2371 4.04708 14.0112C4.2688 15.7853 5.06772 17.4372 6.32076 18.7125C7.5738 19.9878 9.21143 20.8157 10.9813 21.0686C12.7512 21.3215 14.5552 20.9854 16.1152 20.1121C17.6753 19.2387 18.9049 17.8766 19.6146 16.2357C20.3243 14.5947 20.4747 12.7659 20.0426 11.031C20.0187 10.9354 19.9762 10.8454 19.9175 10.7662C19.8589 10.6871 19.7852 10.6202 19.7007 10.5695C19.6162 10.5188 19.5225 10.4853 19.4251 10.4708C19.3276 10.4562 19.2282 10.4611 19.1326 10.485C19.037 10.5089 18.9471 10.5514 18.8679 10.61C18.7887 10.6687 18.7218 10.7424 18.6711 10.8269C18.6204 10.9114 18.5869 11.0051 18.5724 11.1025C18.5579 11.2 18.5627 11.2994 18.5866 11.395C18.937 12.8031 18.8172 14.2872 18.2454 15.6209C17.6737 16.9546 16.6814 18.0647 15.42 18.7818C14.1585 19.499 12.6971 19.7838 11.2586 19.5929C9.82016 19.4021 8.48362 18.7459 7.45284 17.7246C6.42206 16.7033 5.75364 15.3728 5.54951 13.9362C5.34539 12.4995 5.61678 11.0356 6.32228 9.76755C7.02777 8.49953 8.12866 7.49707 9.45703 6.91307C10.7854 6.32907 12.2683 6.19559 13.6796 6.53298L12.9396 8.11598C12.879 8.24527 12.8566 8.38916 12.875 8.53074C12.8934 8.67233 12.9518 8.80573 13.0434 8.91526C13.1349 9.0248 13.2559 9.10592 13.392 9.14909C13.5281 9.19227 13.6736 9.1957 13.8116 9.15898L17.5876 8.16298Z" fill="#2A59FE"/>
</svg>
