<svg width="25" height="24" viewBox="0 0 25 24" fill="none" xmlns="http://www.w3.org/2000/svg">
<path d="M12.8564 10.75C13.0554 10.75 13.2461 10.829 13.3868 10.9697C13.5274 11.1103 13.6064 11.3011 13.6064 11.5V16.5C13.6064 16.6989 13.5274 16.8897 13.3868 17.0303C13.2461 17.171 13.0554 17.25 12.8564 17.25C12.6575 17.25 12.4668 17.171 12.3261 17.0303C12.1855 16.8897 12.1064 16.6989 12.1064 16.5V11.5C12.1064 11.3011 12.1855 11.1103 12.3261 10.9697C12.4668 10.829 12.6575 10.75 12.8564 10.75ZM12.8564 9C13.1217 9 13.376 8.89464 13.5636 8.70711C13.7511 8.51957 13.8564 8.26522 13.8564 8C13.8564 7.73478 13.7511 7.48043 13.5636 7.29289C13.376 7.10536 13.1217 7 12.8564 7C12.5912 7 12.3369 7.10536 12.1493 7.29289C11.9618 7.48043 11.8564 7.73478 11.8564 8C11.8564 8.26522 11.9618 8.51957 12.1493 8.70711C12.3369 8.89464 12.5912 9 12.8564 9Z" fill="#02071C" fill-opacity="0.7"/>
<path fill-rule="evenodd" clip-rule="evenodd" d="M4.10645 12C4.10645 9.67936 5.02832 7.45376 6.66926 5.81282C8.3102 4.17187 10.5358 3.25 12.8564 3.25C15.1771 3.25 17.4027 4.17187 19.0436 5.81282C20.6846 7.45376 21.6064 9.67936 21.6064 12C21.6064 14.3206 20.6846 16.5462 19.0436 18.1872C17.4027 19.8281 15.1771 20.75 12.8564 20.75C10.5358 20.75 8.3102 19.8281 6.66926 18.1872C5.02832 16.5462 4.10645 14.3206 4.10645 12ZM12.8564 4.75C11.9044 4.75 10.9616 4.93753 10.082 5.30187C9.20238 5.66622 8.40315 6.20025 7.72992 6.87348C7.0567 7.5467 6.52267 8.34593 6.15832 9.22554C5.79397 10.1052 5.60645 11.0479 5.60645 12C5.60645 12.9521 5.79397 13.8948 6.15832 14.7745C6.52267 15.6541 7.0567 16.4533 7.72992 17.1265C8.40315 17.7997 9.20238 18.3338 10.082 18.6981C10.9616 19.0625 11.9044 19.25 12.8564 19.25C14.7793 19.25 16.6233 18.4862 17.983 17.1265C19.3426 15.7669 20.1064 13.9228 20.1064 12C20.1064 10.0772 19.3426 8.23311 17.983 6.87348C16.6233 5.51384 14.7793 4.75 12.8564 4.75Z" fill="#02071C" fill-opacity="0.7"/>
</svg>
