<svg width="25" height="24" viewBox="0 0 25 24" fill="none" xmlns="http://www.w3.org/2000/svg">
<path d="M15.4633 3.25067C15.662 3.25067 15.8526 3.32956 15.9933 3.47001L18.8213 6.29901C18.9617 6.43964 19.0406 6.63026 19.0406 6.82901C19.0406 7.02776 18.9617 7.21839 18.8213 7.35901L9.62927 16.551C9.53507 16.6455 9.41735 16.7132 9.28827 16.747L5.46027 17.747C5.3337 17.78 5.2007 17.7794 5.07447 17.7451C4.94823 17.7108 4.83316 17.6441 4.74067 17.5516C4.64817 17.4591 4.58148 17.3441 4.5472 17.2178C4.51293 17.0916 4.51226 16.9586 4.54527 16.832L5.54527 13.002C5.57899 12.8734 5.64628 12.7561 5.74027 12.662L14.9333 3.47001C15.0739 3.32956 15.2645 3.25067 15.4633 3.25067Z" fill="#2A59FE"/>
<path d="M4.85645 19.25C4.65753 19.25 4.46677 19.329 4.32612 19.4697C4.18546 19.6103 4.10645 19.8011 4.10645 20C4.10645 20.1989 4.18546 20.3897 4.32612 20.5303C4.46677 20.671 4.65753 20.75 4.85645 20.75H19.8564C20.0554 20.75 20.2461 20.671 20.3868 20.5303C20.5274 20.3897 20.6064 20.1989 20.6064 20C20.6064 19.8011 20.5274 19.6103 20.3868 19.4697C20.2461 19.329 20.0554 19.25 19.8564 19.25H4.85645Z" fill="#2A59FE"/>
</svg>
