<svg width="25" height="24" viewBox="0 0 25 24" fill="none" xmlns="http://www.w3.org/2000/svg">
<path fill-rule="evenodd" clip-rule="evenodd" d="M8.60645 7.5C8.60645 6.94188 8.71637 6.38923 8.92996 5.8736C9.14354 5.35796 9.45659 4.88945 9.85124 4.4948C10.2459 4.10015 10.7144 3.78709 11.23 3.57351C11.7457 3.35993 12.2983 3.25 12.8564 3.25C13.4146 3.25 13.9672 3.35993 14.4829 3.57351C14.9985 3.78709 15.467 4.10015 15.8616 4.4948C16.2563 4.88945 16.5694 5.35796 16.7829 5.8736C16.9965 6.38923 17.1064 6.94188 17.1064 7.5C17.1064 8.62717 16.6587 9.70817 15.8616 10.5052C15.0646 11.3022 13.9836 11.75 12.8564 11.75C11.7293 11.75 10.6483 11.3022 9.85124 10.5052C9.05421 9.70817 8.60645 8.62717 8.60645 7.5ZM12.8564 4.75C12.1271 4.75 11.4276 5.03973 10.9119 5.55546C10.3962 6.07118 10.1064 6.77065 10.1064 7.5C10.1064 8.22935 10.3962 8.92882 10.9119 9.44454C11.4276 9.96027 12.1271 10.25 12.8564 10.25C13.5858 10.25 14.2853 9.96027 14.801 9.44454C15.3167 8.92882 15.6064 8.22935 15.6064 7.5C15.6064 6.77065 15.3167 6.07118 14.801 5.55546C14.2853 5.03973 13.5858 4.75 12.8564 4.75ZM8.85645 14.75C8.25971 14.75 7.68741 14.9871 7.26546 15.409C6.8435 15.831 6.60645 16.4033 6.60645 17V18.188C6.60645 18.206 6.61945 18.222 6.63745 18.225C10.7564 18.897 14.9574 18.897 19.0754 18.225C19.0842 18.2236 19.0921 18.219 19.0978 18.2123C19.1035 18.2055 19.1066 18.1969 19.1064 18.188V17C19.1064 16.4033 18.8694 15.831 18.4474 15.409C18.0255 14.9871 17.4532 14.75 16.8564 14.75H16.5164C16.4896 14.7498 16.463 14.7538 16.4374 14.762L15.5724 15.045C13.8076 15.6212 11.9053 15.6212 10.1404 15.045L9.27445 14.762C9.24956 14.754 9.22358 14.75 9.19744 14.75H8.85645ZM5.10645 17C5.10645 16.0054 5.50153 15.0516 6.20479 14.3483C6.90806 13.6451 7.86188 13.25 8.85645 13.25H9.19645C9.38145 13.25 9.56544 13.28 9.74045 13.336L10.6064 13.619C12.0685 14.0962 13.6444 14.0962 15.1064 13.619L15.9724 13.336C16.1474 13.279 16.3314 13.25 16.5154 13.25H16.8564C17.851 13.25 18.8048 13.6451 19.5081 14.3483C20.2114 15.0516 20.6064 16.0054 20.6064 17V18.188C20.6064 18.942 20.0604 19.584 19.3164 19.705C15.0381 20.4034 10.6748 20.4034 6.39645 19.705C6.03637 19.6464 5.70889 19.4616 5.47255 19.1837C5.23622 18.9057 5.10645 18.5528 5.10645 18.188V17Z" fill="#2A59FE"/>
<path d="M12.8564 4.75C12.1271 4.75 11.4276 5.03973 10.9119 5.55546C10.3962 6.07118 10.1064 6.77065 10.1064 7.5C10.1064 8.22935 10.3962 8.92882 10.9119 9.44454C11.4276 9.96027 12.1271 10.25 12.8564 10.25C13.5858 10.25 14.2853 9.96027 14.801 9.44454C15.3167 8.92882 15.6064 8.22935 15.6064 7.5C15.6064 6.77065 15.3167 6.07118 14.801 5.55546C14.2853 5.03973 13.5858 4.75 12.8564 4.75Z" fill="#2A59FE"/>
<path d="M8.85645 14.75C8.25971 14.75 7.68741 14.9871 7.26546 15.409C6.8435 15.831 6.60645 16.4033 6.60645 17V18.188C6.60645 18.206 6.61945 18.222 6.63745 18.225C10.7564 18.897 14.9574 18.897 19.0754 18.225C19.0842 18.2236 19.0921 18.219 19.0978 18.2123C19.1035 18.2055 19.1066 18.1969 19.1064 18.188V17C19.1064 16.4033 18.8694 15.831 18.4474 15.409C18.0255 14.9871 17.4532 14.75 16.8564 14.75H16.5164C16.4896 14.7498 16.463 14.7538 16.4374 14.762L15.5724 15.045C13.8076 15.6212 11.9053 15.6212 10.1404 15.045L9.27445 14.762C9.24956 14.754 9.22358 14.75 9.19744 14.75H8.85645Z" fill="#2A59FE"/>
</svg>
