<svg width="25" height="24" viewBox="0 0 25 24" fill="none" xmlns="http://www.w3.org/2000/svg">
<path fill-rule="evenodd" clip-rule="evenodd" d="M11.5945 3.25C10.8205 3.25 10.1755 3.841 10.1075 4.612C9.96638 6.22294 9.93063 7.84139 10.0005 9.457L9.74754 9.475L8.25755 9.583C8.03994 9.5989 7.8302 9.67103 7.64884 9.79233C7.46749 9.91363 7.32074 10.0799 7.22296 10.275C7.12518 10.47 7.07973 10.6871 7.09105 10.905C7.10237 11.1229 7.17008 11.3341 7.28755 11.518C8.38396 13.2337 9.79674 14.7252 11.4505 15.913L12.0465 16.342C12.2826 16.5116 12.5659 16.6029 12.8565 16.6029C13.1472 16.6029 13.4305 16.5116 13.6665 16.342L14.2625 15.913C15.916 14.7252 17.3284 13.2337 18.4245 11.518C18.542 11.3341 18.6097 11.1229 18.621 10.905C18.6324 10.6871 18.5869 10.47 18.4891 10.275C18.3914 10.0799 18.2446 9.91363 18.0633 9.79233C17.8819 9.67103 17.6721 9.5989 17.4545 9.583L15.9645 9.475C15.8806 9.46875 15.7966 9.46275 15.7125 9.457C15.7825 7.842 15.7465 6.223 15.6055 4.612C15.573 4.24011 15.4023 3.89392 15.127 3.64177C14.8517 3.38962 14.4919 3.24983 14.1185 3.25H11.5945ZM11.5385 10.115C11.4247 8.32763 11.4457 6.53421 11.6015 4.75H14.1115C14.2678 6.53418 14.2892 8.3276 14.1755 10.115C14.1693 10.2141 14.1829 10.3134 14.2153 10.4073C14.2478 10.5011 14.2986 10.5875 14.3647 10.6616C14.4309 10.7356 14.511 10.7958 14.6006 10.8386C14.6902 10.8814 14.7874 10.906 14.8865 10.911C15.2105 10.927 15.5335 10.947 15.8565 10.971L16.9375 11.05C15.9774 12.464 14.7757 13.6979 13.3875 14.695L12.8575 15.076L12.3255 14.695C10.9373 13.6976 9.73558 12.4634 8.77555 11.049L9.85654 10.972C10.1795 10.948 10.5035 10.928 10.8265 10.912C10.9258 10.9072 11.0231 10.8826 11.1128 10.8399C11.2025 10.7971 11.2828 10.737 11.349 10.6629C11.4153 10.5888 11.4661 10.5024 11.4987 10.4085C11.5312 10.3146 11.5448 10.2152 11.5385 10.116V10.115Z" fill="#02071C" fill-opacity="0.7"/>
<path d="M6.60645 17C6.60645 16.8011 6.52743 16.6103 6.38678 16.4697C6.24612 16.329 6.05536 16.25 5.85645 16.25C5.65753 16.25 5.46677 16.329 5.32612 16.4697C5.18546 16.6103 5.10645 16.8011 5.10645 17V19C5.10645 19.966 5.89045 20.75 6.85645 20.75H18.8564C19.3206 20.75 19.7657 20.5656 20.0939 20.2374C20.4221 19.9092 20.6064 19.4641 20.6064 19V17C20.6064 16.8011 20.5274 16.6103 20.3868 16.4697C20.2461 16.329 20.0554 16.25 19.8564 16.25C19.6575 16.25 19.4668 16.329 19.3261 16.4697C19.1855 16.6103 19.1064 16.8011 19.1064 17V19C19.1064 19.0663 19.0801 19.1299 19.0332 19.1768C18.9863 19.2237 18.9227 19.25 18.8564 19.25H6.85645C6.79014 19.25 6.72655 19.2237 6.67967 19.1768C6.63278 19.1299 6.60645 19.0663 6.60645 19V17Z" fill="#02071C" fill-opacity="0.7"/>
</svg>
