<svg width="25" height="24" viewBox="0 0 25 24" fill="none" xmlns="http://www.w3.org/2000/svg">
<path fill-rule="evenodd" clip-rule="evenodd" d="M12.1064 5.788C10.7436 5.9297 9.44879 6.45465 8.37205 7.30203C7.2953 8.1494 6.48069 9.28452 6.02258 10.5759C5.56448 11.8672 5.48165 13.2619 5.78367 14.5984C6.0857 15.9349 6.76022 17.1585 7.72909 18.1274C8.69797 19.0962 9.92153 19.7708 11.258 20.0728C12.5945 20.3748 13.9892 20.292 15.2806 19.8339C16.5719 19.3758 17.707 18.5611 18.5544 17.4844C19.4018 16.4077 19.9267 15.1128 20.0684 13.75H12.8564C12.6575 13.75 12.4668 13.671 12.3261 13.5303C12.1855 13.3897 12.1064 13.1989 12.1064 13V5.788ZM4.10645 13C4.10645 10.6794 5.02832 8.45376 6.66926 6.81282C8.3102 5.17187 10.5358 4.25 12.8564 4.25C13.0554 4.25 13.2461 4.32902 13.3868 4.46967C13.5274 4.61032 13.6064 4.80109 13.6064 5V12.25H20.8564C21.0554 12.25 21.2461 12.329 21.3868 12.4697C21.5274 12.6103 21.6064 12.8011 21.6064 13C21.6064 15.3206 20.6846 17.5462 19.0436 19.1872C17.4027 20.8281 15.1771 21.75 12.8564 21.75C10.5358 21.75 8.3102 20.8281 6.66926 19.1872C5.02832 17.5462 4.10645 15.3206 4.10645 13Z" fill="#2A59FE"/>
<path d="M12.1064 5.788C10.7436 5.9297 9.44879 6.45465 8.37205 7.30203C7.2953 8.1494 6.48069 9.28452 6.02258 10.5759C5.56448 11.8672 5.48165 13.2619 5.78367 14.5984C6.0857 15.9349 6.76022 17.1585 7.72909 18.1274C8.69797 19.0962 9.92153 19.7708 11.258 20.0728C12.5945 20.3748 13.9892 20.292 15.2806 19.8339C16.5719 19.3758 17.707 18.5611 18.5544 17.4844C19.4018 16.4077 19.9267 15.1128 20.0684 13.75H12.8564C12.6575 13.75 12.4668 13.671 12.3261 13.5303C12.1855 13.3897 12.1064 13.1989 12.1064 13V5.788Z" fill="#2A59FE"/>
<path fill-rule="evenodd" clip-rule="evenodd" d="M16.3564 4.67399V9.5H21.1824C20.9033 8.32784 20.3043 7.25614 19.4523 6.40411C18.6003 5.55209 17.5286 4.95317 16.3564 4.67399ZM15.8544 3.062C19.4744 3.512 22.3444 6.382 22.7944 10.002C22.8634 10.55 22.4084 11 21.8564 11H15.3564C15.2238 11 15.0967 10.9473 15.0029 10.8535C14.9091 10.7598 14.8564 10.6326 14.8564 10.5V4C14.8564 3.448 15.3064 2.993 15.8544 3.062Z" fill="#2A59FE"/>
<path d="M16.3564 4.67399V9.5H21.1824C20.9033 8.32784 20.3043 7.25614 19.4523 6.40411C18.6003 5.55209 17.5286 4.95317 16.3564 4.67399Z" fill="#2A59FE"/>
</svg>
