<svg width="25" height="24" viewBox="0 0 25 24" fill="none" xmlns="http://www.w3.org/2000/svg">
<g clip-path="url(#clip0_79_2209)">
<path fill-rule="evenodd" clip-rule="evenodd" d="M9.78662 4.47C8.50389 4.32779 7.20936 4.32779 5.92662 4.47C5.77846 4.48669 5.64017 4.55263 5.53393 4.65724C5.42768 4.76186 5.35961 4.8991 5.34062 5.047C5.18882 6.34491 5.18882 7.65609 5.34062 8.954C5.35987 9.10186 5.42817 9.23899 5.5346 9.34342C5.64103 9.44786 5.77942 9.51356 5.92762 9.53C7.19862 9.672 8.51462 9.672 9.78562 9.53C9.93382 9.51356 10.0722 9.44786 10.1787 9.34342C10.2851 9.23899 10.3534 9.10186 10.3726 8.954C10.5246 7.656 10.5246 6.344 10.3726 5.046C10.3534 4.89813 10.2851 4.761 10.1787 4.65657C10.0722 4.55213 9.93382 4.48644 9.78562 4.47H9.78662ZM5.75962 2.98C7.15269 2.82552 8.55856 2.82552 9.95162 2.98C10.9416 3.09 11.7446 3.87 11.8616 4.872C12.027 6.28585 12.027 7.71415 11.8616 9.128C11.8031 9.61258 11.5827 10.0632 11.236 10.4068C10.8893 10.7504 10.4367 10.9668 9.95162 11.021C8.56962 11.175 7.14162 11.175 5.75962 11.021C5.27453 10.9668 4.82196 10.7504 4.47528 10.4068C4.12859 10.0632 3.90813 9.61258 3.84962 9.128C3.68424 7.71415 3.68424 6.28584 3.84962 4.872C3.90834 4.38759 4.1289 3.9372 4.47556 3.5938C4.82222 3.25041 5.27468 3.03412 5.75962 2.98ZM9.78662 14.47C8.50389 14.3278 7.20936 14.3278 5.92662 14.47C5.7786 14.4866 5.64044 14.5524 5.53421 14.6569C5.42798 14.7613 5.35982 14.8983 5.34062 15.046C5.18874 16.3442 5.18874 17.6558 5.34062 18.954C5.35987 19.1019 5.42817 19.239 5.5346 19.3434C5.64103 19.4479 5.77942 19.5136 5.92762 19.53C7.19862 19.672 8.51462 19.672 9.78562 19.53C9.93382 19.5136 10.0722 19.4479 10.1787 19.3434C10.2851 19.239 10.3534 19.1019 10.3726 18.954C10.5246 17.656 10.5246 16.344 10.3726 15.046C10.3534 14.8981 10.2851 14.761 10.1787 14.6566C10.0722 14.5521 9.93382 14.4864 9.78562 14.47H9.78662ZM5.76062 12.98C7.15369 12.8256 8.55956 12.8256 9.95262 12.98C10.9426 13.09 11.7456 13.87 11.8626 14.872C12.028 16.2858 12.028 17.7141 11.8626 19.128C11.8039 19.6124 11.5834 20.0628 11.2367 20.4062C10.89 20.7496 10.4376 20.9659 9.95262 21.02C8.57062 21.175 7.14262 21.175 5.76062 21.02C5.27568 20.9659 4.82322 20.7496 4.47656 20.4062C4.1299 20.0628 3.90934 19.6124 3.85062 19.128C3.68524 17.7141 3.68524 16.2858 3.85062 14.872C3.90934 14.3876 4.1299 13.9372 4.47656 13.5938C4.82322 13.2504 5.27568 13.0341 5.76062 12.98ZM19.7866 4.47C18.5039 4.3278 17.2094 4.3278 15.9266 4.47C15.7785 4.48669 15.6402 4.55263 15.5339 4.65724C15.4277 4.76186 15.3596 4.8991 15.3406 5.047C15.1888 6.34491 15.1888 7.65609 15.3406 8.954C15.3599 9.10186 15.4282 9.23899 15.5346 9.34342C15.641 9.44786 15.7794 9.51356 15.9276 9.53C17.1986 9.672 18.5146 9.672 19.7856 9.53C19.9338 9.51356 20.0722 9.44786 20.1786 9.34342C20.2851 9.23899 20.3534 9.10186 20.3726 8.954C20.5246 7.656 20.5246 6.344 20.3726 5.046C20.3534 4.89813 20.2851 4.761 20.1786 4.65657C20.0722 4.55213 19.9348 4.48644 19.7866 4.47ZM15.7606 2.98C17.1537 2.82552 18.5596 2.82552 19.9526 2.98C20.9426 3.09 21.7456 3.87 21.8626 4.872C22.028 6.28585 22.028 7.71415 21.8626 9.128C21.8041 9.61258 21.5837 10.0632 21.237 10.4068C20.8903 10.7504 20.4377 10.9668 19.9526 11.021C18.5706 11.175 17.1426 11.175 15.7606 11.021C15.2755 10.9668 14.823 10.7504 14.4763 10.4068C14.1296 10.0632 13.9091 9.61258 13.8506 9.128C13.6852 7.71415 13.6852 6.28584 13.8506 4.872C13.9093 4.38759 14.1299 3.9372 14.4766 3.5938C14.8232 3.25041 15.2757 3.03412 15.7606 2.98ZM19.7866 14.47C18.5039 14.3278 17.2094 14.3278 15.9266 14.47C15.7786 14.4866 15.6404 14.5524 15.5342 14.6569C15.428 14.7613 15.3598 14.8983 15.3406 15.046C15.1888 16.3442 15.1888 17.6558 15.3406 18.954C15.3599 19.1019 15.4282 19.239 15.5346 19.3434C15.641 19.4479 15.7794 19.5136 15.9276 19.53C17.1986 19.672 18.5146 19.672 19.7856 19.53C19.9338 19.5136 20.0722 19.4479 20.1786 19.3434C20.2851 19.239 20.3534 19.1019 20.3726 18.954C20.5246 17.656 20.5246 16.344 20.3726 15.046C20.3534 14.8981 20.2851 14.761 20.1786 14.6566C20.0722 14.5521 19.9348 14.4864 19.7866 14.47ZM15.7606 12.98C17.1537 12.8256 18.5596 12.8256 19.9526 12.98C20.9426 13.09 21.7456 13.87 21.8626 14.872C22.028 16.2858 22.028 17.7141 21.8626 19.128C21.8039 19.6124 21.5834 20.0628 21.2367 20.4062C20.89 20.7496 20.4376 20.9659 19.9526 21.02C18.5706 21.175 17.1426 21.175 15.7606 21.02C15.2757 20.9659 14.8232 20.7496 14.4766 20.4062C14.1299 20.0628 13.9093 19.6124 13.8506 19.128C13.6852 17.7142 13.6852 16.2858 13.8506 14.872C13.9093 14.3876 14.1299 13.9372 14.4766 13.5938C14.8232 13.2504 15.2757 13.0341 15.7606 12.98Z" fill="#02071C" fill-opacity="0.7"/>
</g>
<defs>
<clipPath id="clip0_79_2209">
<rect x="0.856445" width="24" height="24" rx="5" fill="white"/>
</clipPath>
</defs>
</svg>
